<?xml version="1.0" encoding="UTF-8" standalone="no"?>
<!-- Created with Inkscape (http://www.inkscape.org/) -->

<svg
   width="793.75mm"
   height="182.55266mm"
   viewBox="0 0 793.75 182.55266"
   version="1.1"
   id="svg1"
   xml:space="preserve"
   xmlns="http://www.w3.org/2000/svg"
   xmlns:svg="http://www.w3.org/2000/svg"><defs
     id="defs1" /><g
     id="layer1"
     transform="translate(1.1632949e-4,-89.766593)"><path
       id="path1"
       style="fill:#fe5000;fill-opacity:1;stroke-width:3.01734"
       d="M 135.90627,89.796097 C 122.24423,90.104696 108.17028,92.661359 94.416832,97.589121 70.880885,106.02185 42.712644,124.6778 26.445992,142.60548 1.199376,170.4301 -5.9708088,195.13796 4.9342123,216.74072 c 9.5148137,18.84869 39.1766937,38.48742 69.1191057,51.9478 2.957549,1.32953 6.77366,2.56058 11.205279,3.63073 -4.266904,-3.71487 -7.672893,-8.17423 -10.187178,-13.40418 -3.156087,-6.56489 -4.73408,-14.62192 -4.73408,-24.17093 0,-9.1511 1.775436,-16.91085 5.326033,-23.27677 3.747858,-6.36601 8.679269,-11.43908 14.794192,-15.21881 6.114916,-3.77982 13.117936,-6.46494 21.008156,-8.05643 7.89022,-1.79046 16.07634,-2.68551 24.55833,-2.68551 5.7204,0 10.75052,0.29897 15.09016,0.89568 4.53686,0.39789 8.18649,0.99409 10.94804,1.78983 v -4.17778 c 0,-7.55961 -2.26906,-13.62779 -6.80591,-18.20335 -4.53692,-4.57552 -12.42686,-6.86325 -23.6704,-6.86325 -7.49571,0 -14.89361,0.59788 -22.19206,1.79135 -5.81777,0.79301 -11.00771,1.90213 -15.572099,3.32702 -1.873781,0.58496 -3.611396,-0.42368 -3.915884,-2.36315 L 85.164073,131.4932 c -0.181001,-1.15294 0.57564,-2.36951 1.699928,-2.68239 2.146676,-0.59743 4.625922,-1.1939 7.439711,-1.79136 3.945103,-0.9947 8.187028,-1.79115 12.723898,-2.38798 4.53687,-0.79576 9.27085,-1.3919 14.20224,-1.7898 5.12864,-0.59689 10.25751,-0.89574 15.38615,-0.89568 13.01882,0 23.86738,1.49281 32.5466,4.47684 8.67921,2.98406 15.58356,7.26061 20.71218,12.83083 5.32591,5.57034 9.07423,12.33326 11.24401,20.29068 2.16986,7.9575 3.2542,16.81096 3.2542,26.5589 v 60.99755 c 13.68467,-14.45423 24.26186,-31.8052 27.73315,-53.67481 2.51429,-15.84032 2.51155,-35.40174 -6.35619,-54.55663 -15.22983,-32.89743 -52.76022,-49.910895 -89.84368,-49.073253 z m 8.40203,125.551493 c -4.14234,0 -8.08657,0.29747 -11.83443,0.89415 -3.55059,0.39795 -6.70658,1.29297 -9.46816,2.68547 -2.76157,1.39254 -4.9319,3.28282 -6.50994,5.67005 -1.57804,2.38729 -2.36781,5.37138 -2.36781,8.95214 0,6.96285 2.26905,11.8371 6.80592,14.62219 4.73413,2.58616 11.14482,3.87869 19.23229,3.87869 4.33961,0 8.48284,-0.0987 12.42792,-0.29747 3.94509,-0.19881 7.1011,-0.49784 9.46816,-0.89568 v -33.71966 c -1.7753,-0.39789 -4.43922,-0.7954 -7.98982,-1.1932 -3.5506,-0.3979 -6.8053,-0.59662 -9.76413,-0.59662 z" /><path
       style="font-weight:bold;font-size:43.495px;line-height:1.2;font-family:Ubuntu;-inkscape-font-specification:'Ubuntu Bold';letter-spacing:-1.73586px;fill:#003594;fill-opacity:1;stroke-width:2.56749;stroke-linecap:round;paint-order:stroke fill markers"
       d="m 298.55042,210.79317 c 1.91294,0 3.73894,-0.0435 5.47797,-0.13044 1.73903,-0.087 3.13027,-0.2174 4.1737,-0.3913 v -14.73836 c -0.78257,-0.17392 -1.95641,-0.34782 -3.52155,-0.52171 -1.56513,-0.17392 -2.99986,-0.26089 -4.30414,-0.26089 -1.82598,0 -3.56502,0.13045 -5.21711,0.39127 -1.56513,0.17393 -2.95637,0.56523 -4.1737,1.17387 -1.21732,0.60865 -2.1738,1.43469 -2.86941,2.47812 -0.69562,1.04342 -1.04343,2.3477 -1.04343,3.91284 0,3.04334 0.99995,5.17367 2.99985,6.39099 2.08685,1.13036 4.91279,1.69555 8.47782,1.69555 z m -1.56513,-56.86664 c 5.73882,0 10.52119,0.65215 14.34707,1.95643 3.82588,1.30428 6.86922,3.17373 9.12997,5.6084 2.3477,2.43466 3.9998,5.39101 4.95626,8.86911 0.9565,3.47809 1.43473,7.34745 1.43473,11.60811 v 40.43271 c -2.78246,0.60864 -6.65185,1.30428 -11.60812,2.08685 -4.95626,0.86953 -10.95593,1.30428 -17.99906,1.30428 -4.43455,0 -8.47782,-0.3913 -12.12981,-1.17387 -3.56503,-0.78257 -6.65183,-2.04337 -9.26039,-3.7824 -2.60857,-1.82599 -4.60846,-4.1737 -5.9997,-7.04312 -1.39123,-2.86941 -2.08685,-6.39099 -2.08685,-10.56469 0,-3.9998 0.78257,-7.39093 2.34771,-10.17339 1.65209,-2.78245 3.82589,-4.99974 6.5214,-6.65181 2.69552,-1.6521 5.78232,-2.82597 9.2604,-3.52158 3.47808,-0.78257 7.08659,-1.17383 10.82553,-1.17383 2.52161,0 4.73888,0.13044 6.65183,0.39126 1.99989,0.17393 3.60851,0.43478 4.82583,0.78257 v -1.82599 c 0,-3.30417 -0.99995,-5.95621 -2.99983,-7.9561 -1.99992,-1.99992 -5.47799,-2.99986 -10.43425,-2.99986 -3.30418,0 -6.56488,0.26089 -9.78211,0.78257 -3.21723,0.43478 -5.99969,1.0869 -8.3474,1.95644 l -2.47813,-15.65138 c 1.13038,-0.34781 2.52161,-0.6956 4.1737,-1.04342 1.73904,-0.43478 3.60851,-0.78257 5.60841,-1.04342 1.99989,-0.34782 4.08674,-0.60868 6.26055,-0.78257 2.26075,-0.26089 4.5215,-0.3913 6.78226,-0.3913 z m 86.22472,35.60688 c 0,-12.5211 -4.60845,-18.78164 -13.82538,-18.78164 -1.99992,0 -3.99981,0.26088 -5.99969,0.78256 -1.91296,0.52172 -3.4781,1.17384 -4.69541,1.95641 v 35.34603 c 0.95646,0.17392 2.17378,0.34782 3.65198,0.52171 1.47818,0.087 3.0868,0.13044 4.82583,0.13044 5.30408,0 9.30389,-1.82599 11.99938,-5.47798 2.69552,-3.65198 4.04329,-8.47781 4.04329,-14.4775 z m 19.82507,0.52171 c 0,5.47798 -0.82605,10.43425 -2.47815,14.8688 -1.56514,4.43456 -3.86937,8.21696 -6.91268,11.34723 -3.04334,3.13028 -6.78226,5.56494 -11.21681,7.30398 -4.43456,1.65209 -9.47779,2.47814 -15.12966,2.47814 -2.34771,0 -4.82585,-0.13044 -7.43442,-0.39129 -2.5216,-0.17393 -5.0432,-0.43479 -7.56483,-0.78257 -2.43466,-0.34782 -4.78237,-0.73909 -7.04311,-1.17384 -2.26075,-0.52171 -4.26066,-1.04343 -5.99969,-1.56514 v -95.86466 l 19.4338,-3.13027 v 34.17216 c 2.17378,-0.95646 4.43455,-1.69555 6.78226,-2.21726 2.3477,-0.52172 4.8693,-0.78257 7.56483,-0.78257 4.8693,0 9.17344,0.86953 12.91236,2.60856 3.73895,1.65207 6.86922,4.04325 9.39082,7.17353 2.52163,3.13027 4.43456,6.9127 5.73884,11.34726 1.30428,4.34759 1.95644,9.21692 1.95644,14.60794 z m 36.00996,20.73805 c 1.91296,0 3.73895,-0.0435 5.47798,-0.13044 1.73903,-0.087 3.13028,-0.2174 4.1737,-0.3913 v -14.73836 c -0.78257,-0.17392 -1.95644,-0.34782 -3.52157,-0.52171 -1.56514,-0.17392 -2.99983,-0.26089 -4.30411,-0.26089 -1.826,0 -3.56506,0.13045 -5.21713,0.39127 -1.56514,0.17393 -2.95638,0.56523 -4.1737,1.17387 -1.21732,0.60865 -2.17381,1.43469 -2.86942,2.47812 -0.6956,1.04342 -1.04342,2.3477 -1.04342,3.91284 0,3.04334 0.99994,5.17367 2.99983,6.39099 2.08685,1.13036 4.91279,1.69555 8.47784,1.69555 z m -1.56514,-56.86664 c 5.73884,0 10.52121,0.65215 14.34709,1.95643 3.82588,1.30428 6.86923,3.17373 9.12997,5.6084 2.34771,2.43466 3.99978,5.39101 4.95627,8.86911 0.95646,3.47809 1.43469,7.34745 1.43469,11.60811 v 40.43271 c -2.78245,0.60864 -6.65182,1.30428 -11.60808,2.08685 -4.95627,0.86953 -10.95596,1.30428 -17.99908,1.30428 -4.43455,0 -8.47784,-0.3913 -12.12983,-1.17387 -3.56502,-0.78257 -6.65181,-2.04337 -9.26038,-3.7824 -2.60856,-1.82599 -4.60844,-4.1737 -5.99969,-7.04312 -1.39124,-2.86941 -2.08685,-6.39099 -2.08685,-10.56469 0,-3.9998 0.78257,-7.39093 2.34771,-10.17339 1.65207,-2.78245 3.82588,-4.99974 6.5214,-6.65181 2.6955,-1.6521 5.78229,-2.82597 9.26038,-3.52158 3.47809,-0.78257 7.0866,-1.17383 10.82555,-1.17383 2.5216,0 4.73886,0.13044 6.65182,0.39126 1.99991,0.17393 3.60853,0.43478 4.82585,0.78257 v -1.82599 c 0,-3.30417 -0.99994,-5.95621 -2.99986,-7.9561 -1.99989,-1.99992 -5.47798,-2.99986 -10.43425,-2.99986 -3.30417,0 -6.56488,0.26089 -9.78209,0.78257 -3.21724,0.43478 -5.99969,1.0869 -8.3474,1.95644 l -2.47815,-15.65138 c 1.13039,-0.34781 2.52163,-0.6956 4.1737,-1.04342 1.73903,-0.43478 3.60851,-0.78257 5.60843,-1.04342 1.99988,-0.34782 4.08673,-0.60868 6.26054,-0.78257 2.26075,-0.26089 4.52152,-0.3913 6.78226,-0.3913 z m 61.96512,56.47537 c 3.56502,0 6.08662,-0.34781 7.56482,-1.04342 1.47818,-0.69561 2.21727,-2.04337 2.21727,-4.04329 0,-1.56513 -0.95647,-2.9129 -2.86942,-4.04325 -1.91296,-1.21732 -4.82582,-2.56508 -8.73867,-4.04329 -3.04334,-1.13035 -5.8258,-2.30422 -8.34739,-3.52154 -2.43467,-1.21732 -4.52152,-2.65204 -6.26055,-4.30414 -1.73903,-1.73903 -3.0868,-3.7824 -4.04329,-6.13011 -0.95646,-2.3477 -1.43469,-5.17367 -1.43469,-8.47784 0,-6.43444 2.39118,-11.52115 7.17353,-15.26007 4.78237,-3.73895 11.34726,-5.60842 19.69465,-5.60842 4.1737,0 8.17351,0.3913 11.99939,1.17387 3.82588,0.6956 6.86922,1.47817 9.12996,2.3477 l -3.39113,15.12966 c -2.26074,-0.78257 -4.73889,-1.47821 -7.43441,-2.08685 -2.60856,-0.60867 -5.56494,-0.91301 -8.86911,-0.91301 -6.08666,0 -9.12997,1.69558 -9.12997,5.08671 0,0.78257 0.13044,1.47817 0.3913,2.08685 0.26089,0.60864 0.78257,1.21732 1.56514,1.82599 0.78257,0.52171 1.82599,1.13039 3.13027,1.82599 1.39124,0.60865 3.13028,1.30429 5.21712,2.08685 4.26064,1.56514 7.78221,3.13028 10.56466,4.69541 2.78246,1.47818 4.95627,3.13028 6.52141,4.95627 1.6521,1.73903 2.78249,3.69547 3.39113,5.86925 0.69561,2.17381 1.04342,4.69541 1.04342,7.56483 0,6.78226 -2.56508,11.91242 -7.69524,15.39051 -5.04323,3.4781 -12.21676,5.21713 -21.52065,5.21713 -6.08665,0 -11.17333,-0.52171 -15.26007,-1.56514 -3.9998,-1.04342 -6.78226,-1.91295 -8.3474,-2.60856 l 3.26069,-15.78178 c 3.30417,1.30428 6.6953,2.3477 10.17339,3.13027 3.47809,0.69561 6.91271,1.04342 10.30384,1.04342 z m 37.70557,-71.73544 19.4338,-3.13028 v 20.21634 h 23.34662 v 16.17308 h -23.34662 v 24.12921 c 0,4.08674 0.69561,7.34743 2.08685,9.7821 1.47818,2.43466 4.39108,3.65198 8.73867,3.65198 2.08685,0 4.21718,-0.17392 6.39099,-0.52171 2.26074,-0.43475 4.30411,-0.99994 6.13011,-1.69555 l 2.739,15.12966 c -2.34771,0.95646 -4.95627,1.78251 -7.82569,2.47812 -2.86941,0.6956 -6.39099,1.04342 -10.56469,1.04342 -5.30405,0 -9.69512,-0.69561 -13.17322,-2.08685 -3.47809,-1.47817 -6.26055,-3.47806 -8.34739,-5.99969 -2.08685,-2.60856 -3.56503,-5.73884 -4.43456,-9.39082 -0.78257,-3.65199 -1.17387,-7.69524 -1.17387,-12.1298 z m 72.79075,85.69123 h -19.4338 v -68.60517 h 19.4338 z m 1.82599,-90.68687 c 0,3.56502 -1.17386,6.39099 -3.52157,8.47784 -2.26074,1.99988 -4.95627,2.99983 -8.08654,2.99983 -3.13028,0 -5.86925,-0.99995 -8.21696,-2.99983 -2.26074,-2.08685 -3.39113,-4.91282 -3.39113,-8.47784 0,-3.56503 1.13039,-6.34751 3.39113,-8.3474 2.34771,-2.08685 5.28598,-3.13813 8.21696,-3.13028 2.89041,0.009 5.8258,1.04343 8.08654,3.13028 2.34771,1.99989 3.52157,4.78237 3.52157,8.3474 z m 55.18282,55.86259 c 0,-12.5211 -4.60845,-18.78164 -13.82537,-18.78164 -1.99989,0 -3.99978,0.26088 -5.9997,0.78256 -1.91295,0.52172 -3.47809,1.17384 -4.69541,1.95641 v 35.34603 c 0.9565,0.17392 2.17381,0.34782 3.65199,0.52171 1.4782,0.087 3.08682,0.13044 4.82585,0.13044 5.30406,0 9.30386,-1.82599 11.99939,-5.47798 2.69549,-3.65198 4.04325,-8.47781 4.04325,-14.4775 z m 19.82507,0.52171 c 0,5.47798 -0.82605,10.43425 -2.47812,14.8688 -1.56513,4.43456 -3.86936,8.21696 -6.9127,11.34723 -3.04331,3.13028 -6.78226,5.56494 -11.21681,7.30398 -4.43456,1.65209 -9.47776,2.47814 -15.12966,2.47814 -2.34771,0 -4.82583,-0.13044 -7.43439,-0.39129 -2.52163,-0.17393 -5.04323,-0.43479 -7.56483,-0.78257 -2.43467,-0.34782 -4.78237,-0.73909 -7.04311,-1.17384 -2.26075,-0.52171 -4.26067,-1.04343 -5.9997,-1.56514 v -95.86466 l 19.43377,-3.13027 v 34.17216 c 2.17381,-0.95646 4.43456,-1.69555 6.78226,-2.21726 2.34771,-0.52172 4.86934,-0.78257 7.56483,-0.78257 4.86931,0 9.17345,0.86953 12.9124,2.60856 3.73892,1.65207 6.86919,4.04325 9.39082,7.17353 2.5216,3.13027 4.43456,6.9127 5.73884,11.34726 1.30428,4.34759 1.9564,9.21692 1.9564,14.60794 z m 37.18384,35.60686 c -5.65191,-0.087 -10.26036,-0.69564 -13.82538,-1.826 -3.47809,-1.13035 -6.26055,-2.69549 -8.3474,-4.69541 -1.99991,-2.08685 -3.39113,-4.56497 -4.1737,-7.43439 -0.6956,-2.95637 -1.04342,-6.26054 -1.04342,-9.91253 v -75.51788 l 19.43377,-3.13027 v 74.73531 c 0,1.73903 0.13044,3.30417 0.3913,4.69541 0.26088,1.39124 0.73909,2.56508 1.43469,3.52154 0.78257,0.95649 1.86948,1.73906 3.26072,2.34771 1.39124,0.60867 3.26069,0.99997 5.60839,1.17387 z m 5.35935,-35.08515 c 0,-6.08665 0.91301,-11.3907 2.739,-15.91222 1.91296,-4.60848 4.39108,-8.43436 7.43439,-11.47767 3.04334,-3.04335 6.5214,-5.34757 10.43425,-6.91271 3.9998,-1.56513 8.08654,-2.3477 12.26024,-2.3477 9.73864,0 17.43388,2.99986 23.08578,8.99955 5.65188,5.91273 8.47781,14.65143 8.47781,26.21603 0,1.13039 -0.0435,2.39119 -0.13044,3.78243 -0.087,1.30428 -0.17392,2.47812 -0.26089,3.52154 h -44.08469 c 0.43475,3.99981 2.30423,7.17356 5.60839,9.52127 3.30417,2.3477 7.73873,3.52154 13.30367,3.52154 3.56505,0 7.04312,-0.30433 10.43425,-0.91298 3.47809,-0.69561 6.30402,-1.52166 8.47784,-2.47815 l 2.60856,15.78182 c -1.04343,0.52171 -2.43467,1.04342 -4.1737,1.56513 -1.73903,0.52172 -3.69547,0.95647 -5.86928,1.30428 -2.08685,0.43475 -4.34759,0.78257 -6.78226,1.04343 -2.43467,0.26088 -4.86931,0.39127 -7.30397,0.39127 -6.17359,0 -11.56461,-0.91298 -16.17309,-2.73898 -4.52151,-1.82599 -8.30391,-4.30414 -11.34722,-7.43441 -2.95638,-3.21721 -5.17365,-6.99964 -6.65185,-11.34723 -1.39124,-4.34759 -2.08685,-9.04301 -2.08685,-14.08624 z m 45.64983,-7.43441 c -0.087,-1.65207 -0.3913,-3.26069 -0.91298,-4.82583 -0.43478,-1.56513 -1.17387,-2.95638 -2.21729,-4.17369 -0.95647,-1.21732 -2.21727,-2.2173 -3.7824,-2.99986 -1.47821,-0.78257 -3.34768,-1.17384 -5.60843,-1.17384 -2.17378,0 -4.04325,0.39127 -5.60839,1.17384 -1.56514,0.6956 -2.86942,1.65209 -3.91284,2.86941 -1.04343,1.21732 -1.86948,2.65205 -2.47815,4.30414 -0.52171,1.56514 -0.91298,3.17376 -1.17384,4.82583 z"
       id="text1"
       aria-label="abastible" /></g></svg>
